<?xml version="1.0" encoding="UTF-8" standalone="no"?>
<!DOCTYPE svg PUBLIC "-//W3C//DTD SVG 1.1//EN"
 "http://www.w3.org/Graphics/SVG/1.1/DTD/svg11.dtd">
<!-- Generated by graphviz version 2.40.1 (20161225.0304)
 -->
<!-- Title: state transitions Pages: 1 -->
<svg width="631pt" height="610pt"
 viewBox="0.00 0.00 631.00 610.00" xmlns="http://www.w3.org/2000/svg" xmlns:xlink="http://www.w3.org/1999/xlink">
<g id="graph0" class="graph" transform="scale(1 1) rotate(0) translate(4 606)">
<title>state transitions</title>
<polygon fill="#ffffff" stroke="transparent" points="-4,4 -4,-606 627,-606 627,4 -4,4"/>
<g id="clust1" class="cluster state regular">
<title>cluster_next_state</title>
<path fill="none" stroke="#000000" stroke-width="2" d="M20,-8C20,-8 603,-8 603,-8 609,-8 615,-14 615,-20 615,-20 615,-582 615,-582 615,-588 609,-594 603,-594 603,-594 20,-594 20,-594 14,-594 8,-588 8,-582 8,-582 8,-20 8,-20 8,-14 14,-8 20,-8"/>
<text text-anchor="start" x="284.3208" y="-575.2" font-family="Helvetica,sans-Serif" font-size="12.00" fill="#000000">next_state</text>
</g>
<!-- next_state -->
<!-- IDLE -->
<g id="node2" class="node state regular">
<title>IDLE</title>
<polygon fill="#ffffff" fill-opacity="0.003922" stroke="transparent" stroke-width="2" points="73,-134 17,-134 17,-98 73,-98 73,-134"/>
<text text-anchor="start" x="31.6644" y="-112.2" font-family="Helvetica,sans-Serif" font-size="12.00" fill="#000000">IDLE</text>
<path fill="none" stroke="#000000" stroke-width="2" d="M29.3333,-99C29.3333,-99 60.6667,-99 60.6667,-99 66.3333,-99 72,-104.6667 72,-110.3333 72,-110.3333 72,-121.6667 72,-121.6667 72,-127.3333 66.3333,-133 60.6667,-133 60.6667,-133 29.3333,-133 29.3333,-133 23.6667,-133 18,-127.3333 18,-121.6667 18,-121.6667 18,-110.3333 18,-110.3333 18,-104.6667 23.6667,-99 29.3333,-99"/>
</g>
<!-- IDLE&#45;&gt;IDLE -->
<g id="edge2" class="edge transition">
<title>IDLE&#45;&gt;IDLE</title>
<path fill="none" stroke="#000000" d="M73.0183,-120.8247C84.888,-121.1883 95,-119.5801 95,-116 95,-113.5387 90.2205,-112.0094 83.3762,-111.4121"/>
<polygon fill="#000000" stroke="#000000" points="83.0957,-107.9049 73.0183,-111.1753 82.9356,-114.903 83.0957,-107.9049"/>
<text text-anchor="start" x="95" y="-113" font-family="Helvetica,sans-Serif" font-size="10.00" fill="#000000">not ((uart_data_ready_x = &#39;1&#39;) or (uart_data_ready_y = &#39;1&#39;) or (uart_data_ready_z = &#39;1&#39;)) &#160;&#160;</text>
</g>
<!-- GET_BUS -->
<g id="node8" class="node state regular">
<title>GET_BUS</title>
<polygon fill="#ffffff" fill-opacity="0.003922" stroke="transparent" stroke-width="2" points="321,-52 243,-52 243,-16 321,-16 321,-52"/>
<text text-anchor="start" x="253.9962" y="-30.2" font-family="Helvetica,sans-Serif" font-size="12.00" fill="#000000">GET_BUS</text>
<path fill="none" stroke="#ff0000" stroke-width="2" d="M255.3333,-17C255.3333,-17 308.6667,-17 308.6667,-17 314.3333,-17 320,-22.6667 320,-28.3333 320,-28.3333 320,-39.6667 320,-39.6667 320,-45.3333 314.3333,-51 308.6667,-51 308.6667,-51 255.3333,-51 255.3333,-51 249.6667,-51 244,-45.3333 244,-39.6667 244,-39.6667 244,-28.3333 244,-28.3333 244,-22.6667 249.6667,-17 255.3333,-17"/>
</g>
<!-- IDLE&#45;&gt;GET_BUS -->
<g id="edge1" class="edge transition">
<title>IDLE&#45;&gt;GET_BUS</title>
<path fill="none" stroke="#ff0000" d="M73.3564,-97.8424C89.5832,-88.1223 110.6266,-76.6175 130.58,-69 163.7576,-56.3339 202.8461,-47.4402 232.9971,-41.7879"/>
<polygon fill="#ff0000" stroke="#ff0000" points="233.6458,-45.2274 242.8581,-39.9946 232.3932,-38.3404 233.6458,-45.2274"/>
<text text-anchor="start" x="130" y="-72" font-family="Helvetica,sans-Serif" font-size="10.00" fill="#ff0000">(uart_data_ready_x = &#39;1&#39;) or (uart_data_ready_y = &#39;1&#39;) or (uart_data_ready_z = &#39;1&#39;) &#160;&#160;</text>
</g>
<!-- GET_bus -->
<g id="node3" class="node state regular">
<title>GET_bus</title>
<polygon fill="#ffffff" fill-opacity="0.003922" stroke="transparent" stroke-width="2" points="452,-556 380,-556 380,-520 452,-520 452,-556"/>
<text text-anchor="start" x="390.6596" y="-534.2" font-family="Helvetica,sans-Serif" font-size="12.00" fill="#000000">GET_bus</text>
<path fill="none" stroke="#000000" stroke-width="2" d="M392.3333,-521C392.3333,-521 439.6667,-521 439.6667,-521 445.3333,-521 451,-526.6667 451,-532.3333 451,-532.3333 451,-543.6667 451,-543.6667 451,-549.3333 445.3333,-555 439.6667,-555 439.6667,-555 392.3333,-555 392.3333,-555 386.6667,-555 381,-549.3333 381,-543.6667 381,-543.6667 381,-532.3333 381,-532.3333 381,-526.6667 386.6667,-521 392.3333,-521"/>
</g>
<!-- PREP_TRANSMIT -->
<g id="node4" class="node state regular">
<title>PREP_TRANSMIT</title>
<polygon fill="#ffffff" fill-opacity="0.003922" stroke="transparent" stroke-width="2" points="399,-474 277,-474 277,-438 399,-438 399,-474"/>
<text text-anchor="start" x="287.6678" y="-452.2" font-family="Helvetica,sans-Serif" font-size="12.00" fill="#000000">PREP_TRANSMIT</text>
<path fill="none" stroke="#000000" stroke-width="2" d="M289.3333,-439C289.3333,-439 386.6667,-439 386.6667,-439 392.3333,-439 398,-444.6667 398,-450.3333 398,-450.3333 398,-461.6667 398,-461.6667 398,-467.3333 392.3333,-473 386.6667,-473 386.6667,-473 289.3333,-473 289.3333,-473 283.6667,-473 278,-467.3333 278,-461.6667 278,-461.6667 278,-450.3333 278,-450.3333 278,-444.6667 283.6667,-439 289.3333,-439"/>
</g>
<!-- GET_bus&#45;&gt;PREP_TRANSMIT -->
<g id="edge3" class="edge transition">
<title>GET_bus&#45;&gt;PREP_TRANSMIT</title>
<path fill="none" stroke="#000000" d="M398.6893,-519.8015C387.985,-508.5483 374.0844,-493.9348 362.288,-481.5335"/>
<polygon fill="#000000" stroke="#000000" points="364.6905,-478.9809 355.2623,-474.1476 359.6185,-483.8055 364.6905,-478.9809"/>
<text text-anchor="start" x="382" y="-494" font-family="Helvetica,sans-Serif" font-size="10.00" fill="#000000">uart_grant = &#39;1&#39; &#160;&#160;</text>
</g>
<!-- GET_bus&#45;&gt;GET_BUS -->
<g id="edge4" class="edge transition">
<title>GET_bus&#45;&gt;GET_BUS</title>
<path fill="none" stroke="#ff0000" d="M452.0968,-528.9438C477.8711,-521.3846 508,-509.8089 508,-497 508,-497 508,-497 508,-75 508,-57.1861 397.8889,-44.2648 331.3839,-38.0852"/>
<polygon fill="#ff0000" stroke="#ff0000" points="331.3839,-34.5709 321.1082,-37.1516 330.7504,-41.5422 331.3839,-34.5709"/>
<text text-anchor="start" x="508" y="-289" font-family="Helvetica,sans-Serif" font-size="10.00" fill="#ff0000">not (uart_grant = &#39;1&#39;) &#160;&#160;</text>
</g>
<!-- TRANSMIT -->
<g id="node5" class="node state regular">
<title>TRANSMIT</title>
<polygon fill="#ffffff" fill-opacity="0.003922" stroke="transparent" stroke-width="2" points="335.5,-392 252.5,-392 252.5,-356 335.5,-356 335.5,-392"/>
<text text-anchor="start" x="263.8388" y="-370.2" font-family="Helvetica,sans-Serif" font-size="12.00" fill="#000000">TRANSMIT</text>
<path fill="none" stroke="#000000" stroke-width="2" d="M264.8333,-357C264.8333,-357 323.1667,-357 323.1667,-357 328.8333,-357 334.5,-362.6667 334.5,-368.3333 334.5,-368.3333 334.5,-379.6667 334.5,-379.6667 334.5,-385.3333 328.8333,-391 323.1667,-391 323.1667,-391 264.8333,-391 264.8333,-391 259.1667,-391 253.5,-385.3333 253.5,-379.6667 253.5,-379.6667 253.5,-368.3333 253.5,-368.3333 253.5,-362.6667 259.1667,-357 264.8333,-357"/>
</g>
<!-- PREP_TRANSMIT&#45;&gt;TRANSMIT -->
<g id="edge5" class="edge transition">
<title>PREP_TRANSMIT&#45;&gt;TRANSMIT</title>
<path fill="none" stroke="#000000" d="M328.235,-437.8015C322.4815,-427.0791 315.091,-413.306 308.6502,-401.3026"/>
<polygon fill="#000000" stroke="#000000" points="311.55,-399.3043 303.7377,-392.1476 305.3819,-402.6141 311.55,-399.3043"/>
<text text-anchor="middle" x="319.3895" y="-412" font-family="Helvetica,sans-Serif" font-size="10.00" fill="#000000"> </text>
</g>
<!-- START_TRANSMIT -->
<g id="node6" class="node state regular">
<title>START_TRANSMIT</title>
<polygon fill="#ffffff" fill-opacity="0.003922" stroke="transparent" stroke-width="2" points="145.5,-310 16.5,-310 16.5,-274 145.5,-274 145.5,-310"/>
<text text-anchor="start" x="27.8384" y="-288.2" font-family="Helvetica,sans-Serif" font-size="12.00" fill="#000000">START_TRANSMIT</text>
<path fill="none" stroke="#000000" stroke-width="2" d="M28.8333,-275C28.8333,-275 133.1667,-275 133.1667,-275 138.8333,-275 144.5,-280.6667 144.5,-286.3333 144.5,-286.3333 144.5,-297.6667 144.5,-297.6667 144.5,-303.3333 138.8333,-309 133.1667,-309 133.1667,-309 28.8333,-309 28.8333,-309 23.1667,-309 17.5,-303.3333 17.5,-297.6667 17.5,-297.6667 17.5,-286.3333 17.5,-286.3333 17.5,-280.6667 23.1667,-275 28.8333,-275"/>
</g>
<!-- TRANSMIT&#45;&gt;START_TRANSMIT -->
<g id="edge6" class="edge transition">
<title>TRANSMIT&#45;&gt;START_TRANSMIT</title>
<path fill="none" stroke="#000000" d="M252.4258,-357.9949C219.6405,-345.3733 173.5807,-327.6414 137.4599,-313.7357"/>
<polygon fill="#000000" stroke="#000000" points="138.621,-310.4324 128.0312,-310.1059 136.106,-316.965 138.621,-310.4324"/>
<text text-anchor="middle" x="202.3895" y="-330" font-family="Helvetica,sans-Serif" font-size="10.00" fill="#000000"> </text>
</g>
<!-- START_TRANSMIT&#45;&gt;START_TRANSMIT -->
<g id="edge7" class="edge transition">
<title>START_TRANSMIT&#45;&gt;START_TRANSMIT</title>
<path fill="none" stroke="#000000" d="M145.5072,-296.6739C158.3453,-296.1478 167.5,-294.5898 167.5,-292 167.5,-290.179 162.974,-288.8682 155.8241,-288.0675"/>
<polygon fill="#000000" stroke="#000000" points="155.7324,-284.552 145.5072,-287.3261 155.2306,-291.534 155.7324,-284.552"/>
<text text-anchor="start" x="167.5" y="-289" font-family="Helvetica,sans-Serif" font-size="10.00" fill="#000000">uart_tx_busy = &#39;0&#39; &#160;&#160;</text>
</g>
<!-- wait_TRANSMIT -->
<g id="node7" class="node state regular">
<title>wait_TRANSMIT</title>
<polygon fill="#ffffff" fill-opacity="0.003922" stroke="transparent" stroke-width="2" points="136.5,-228 25.5,-228 25.5,-192 136.5,-192 136.5,-228"/>
<text text-anchor="start" x="36.8378" y="-206.2" font-family="Helvetica,sans-Serif" font-size="12.00" fill="#000000">wait_TRANSMIT</text>
<path fill="none" stroke="#000000" stroke-width="2" d="M37.8333,-193C37.8333,-193 124.1667,-193 124.1667,-193 129.8333,-193 135.5,-198.6667 135.5,-204.3333 135.5,-204.3333 135.5,-215.6667 135.5,-215.6667 135.5,-221.3333 129.8333,-227 124.1667,-227 124.1667,-227 37.8333,-227 37.8333,-227 32.1667,-227 26.5,-221.3333 26.5,-215.6667 26.5,-215.6667 26.5,-204.3333 26.5,-204.3333 26.5,-198.6667 32.1667,-193 37.8333,-193"/>
</g>
<!-- START_TRANSMIT&#45;&gt;wait_TRANSMIT -->
<g id="edge8" class="edge transition">
<title>START_TRANSMIT&#45;&gt;wait_TRANSMIT</title>
<path fill="none" stroke="#000000" d="M81,-273.8015C81,-263.3976 81,-250.1215 81,-238.3768"/>
<polygon fill="#000000" stroke="#000000" points="84.5001,-238.1476 81,-228.1476 77.5001,-238.1476 84.5001,-238.1476"/>
<text text-anchor="start" x="81" y="-248" font-family="Helvetica,sans-Serif" font-size="10.00" fill="#000000">not (uart_tx_busy = &#39;0&#39;) &#160;&#160;</text>
</g>
<!-- wait_TRANSMIT&#45;&gt;IDLE -->
<g id="edge10" class="edge transition">
<title>wait_TRANSMIT&#45;&gt;IDLE</title>
<path fill="none" stroke="#000000" d="M74.0588,-191.8759C68.8295,-178.2215 61.5671,-159.2585 55.6108,-143.7061"/>
<polygon fill="#000000" stroke="#000000" points="58.7649,-142.1553 51.9199,-134.0685 52.2279,-144.6589 58.7649,-142.1553"/>
<text text-anchor="start" x="67" y="-166" font-family="Helvetica,sans-Serif" font-size="10.00" fill="#000000">(&quot;000&quot; &amp; transmit_addr) = x&quot;14&quot; &#160;&#160;</text>
<text text-anchor="start" x="67" y="-154" font-family="Helvetica,sans-Serif" font-size="10.00" fill="#000000">not (uart_tx_busy = &#39;1&#39;) &#160;&#160;</text>
</g>
<!-- wait_TRANSMIT&#45;&gt;TRANSMIT -->
<g id="edge11" class="edge transition">
<title>wait_TRANSMIT&#45;&gt;TRANSMIT</title>
<path fill="none" stroke="#000000" d="M136.685,-215.3237C199.795,-222.129 294,-234.9718 294,-251 294,-333 294,-333 294,-333 294,-337.0484 294,-341.3216 294,-345.52"/>
<polygon fill="#000000" stroke="#000000" points="290.5001,-345.6312 294,-355.6312 297.5001,-345.6313 290.5001,-345.6312"/>
<text text-anchor="start" x="294" y="-295" font-family="Helvetica,sans-Serif" font-size="10.00" fill="#000000">not (uart_tx_busy = &#39;1&#39;) &#160;&#160;</text>
<text text-anchor="start" x="294" y="-283" font-family="Helvetica,sans-Serif" font-size="10.00" fill="#000000">not ((&quot;000&quot; &amp; transmit_addr) = x&quot;14&quot;) &#160;&#160;</text>
</g>
<!-- wait_TRANSMIT&#45;&gt;wait_TRANSMIT -->
<g id="edge9" class="edge transition">
<title>wait_TRANSMIT&#45;&gt;wait_TRANSMIT</title>
<path fill="none" stroke="#000000" d="M136.7324,-214.756C149.3044,-214.3275 158.5,-212.7422 158.5,-210 158.5,-208.0719 153.9539,-206.7157 146.8844,-205.9315"/>
<polygon fill="#000000" stroke="#000000" points="146.946,-202.4278 136.7324,-205.244 146.473,-209.4118 146.946,-202.4278"/>
<text text-anchor="start" x="158.5" y="-207" font-family="Helvetica,sans-Serif" font-size="10.00" fill="#000000">uart_tx_busy = &#39;1&#39; &#160;&#160;</text>
</g>
</g>
</svg>
