<?xml version="1.0" encoding="UTF-8" standalone="no"?>
<!DOCTYPE svg PUBLIC "-//W3C//DTD SVG 1.1//EN"
 "http://www.w3.org/Graphics/SVG/1.1/DTD/svg11.dtd">
<!-- Generated by graphviz version 2.40.1 (20161225.0304)
 -->
<!-- Title: state transitions Pages: 1 -->
<svg width="631pt" height="610pt"
 viewBox="0.00 0.00 631.00 610.00" xmlns="http://www.w3.org/2000/svg" xmlns:xlink="http://www.w3.org/1999/xlink">
<g id="graph0" class="graph" transform="scale(1 1) rotate(0) translate(4 606)">
<title>state transitions</title>
<polygon fill="#ffffff" stroke="transparent" points="-4,4 -4,-606 627,-606 627,4 -4,4"/>
<g id="clust1" class="cluster state regular">
<title>cluster_next_state</title>
<path fill="none" stroke="#000000" stroke-width="2" d="M20,-8C20,-8 603,-8 603,-8 609,-8 615,-14 615,-20 615,-20 615,-582 615,-582 615,-588 609,-594 603,-594 603,-594 20,-594 20,-594 14,-594 8,-588 8,-582 8,-582 8,-20 8,-20 8,-14 14,-8 20,-8"/>
<text text-anchor="start" x="284.3208" y="-575.2" font-family="Helvetica,sans-Serif" font-size="12.00" fill="#000000">next_state</text>
</g>
<!-- next_state -->
<!-- IDLE -->
<g id="node2" class="node state regular">
<title>IDLE</title>
<polygon fill="#ffffff" fill-opacity="0.003922" stroke="transparent" stroke-width="2" points="332,-134 276,-134 276,-98 332,-98 332,-134"/>
<text text-anchor="start" x="290.6644" y="-112.2" font-family="Helvetica,sans-Serif" font-size="12.00" fill="#000000">IDLE</text>
<path fill="none" stroke="#000000" stroke-width="2" d="M288.3333,-99C288.3333,-99 319.6667,-99 319.6667,-99 325.3333,-99 331,-104.6667 331,-110.3333 331,-110.3333 331,-121.6667 331,-121.6667 331,-127.3333 325.3333,-133 319.6667,-133 319.6667,-133 288.3333,-133 288.3333,-133 282.6667,-133 277,-127.3333 277,-121.6667 277,-121.6667 277,-110.3333 277,-110.3333 277,-104.6667 282.6667,-99 288.3333,-99"/>
</g>
<!-- IDLE&#45;&gt;IDLE -->
<g id="edge2" class="edge transition">
<title>IDLE&#45;&gt;IDLE</title>
<path fill="none" stroke="#000000" d="M332.0183,-120.8247C343.888,-121.1883 354,-119.5801 354,-116 354,-113.5387 349.2205,-112.0094 342.3762,-111.4121"/>
<polygon fill="#000000" stroke="#000000" points="342.0957,-107.9049 332.0183,-111.1753 341.9356,-114.903 342.0957,-107.9049"/>
<text text-anchor="start" x="354" y="-113" font-family="Helvetica,sans-Serif" font-size="10.00" fill="#000000">not (uart_data_ready = &#39;1&#39;) &#160;&#160;</text>
</g>
<!-- GET_BUS -->
<g id="node8" class="node state regular">
<title>GET_BUS</title>
<polygon fill="#ffffff" fill-opacity="0.003922" stroke="transparent" stroke-width="2" points="445,-52 367,-52 367,-16 445,-16 445,-52"/>
<text text-anchor="start" x="377.9962" y="-30.2" font-family="Helvetica,sans-Serif" font-size="12.00" fill="#000000">GET_BUS</text>
<path fill="none" stroke="#ff0000" stroke-width="2" d="M379.3333,-17C379.3333,-17 432.6667,-17 432.6667,-17 438.3333,-17 444,-22.6667 444,-28.3333 444,-28.3333 444,-39.6667 444,-39.6667 444,-45.3333 438.3333,-51 432.6667,-51 432.6667,-51 379.3333,-51 379.3333,-51 373.6667,-51 368,-45.3333 368,-39.6667 368,-39.6667 368,-28.3333 368,-28.3333 368,-22.6667 373.6667,-17 379.3333,-17"/>
</g>
<!-- IDLE&#45;&gt;GET_BUS -->
<g id="edge1" class="edge transition">
<title>IDLE&#45;&gt;GET_BUS</title>
<path fill="none" stroke="#ff0000" d="M326.6371,-97.8015C341.0312,-86.2298 359.845,-71.105 375.5418,-58.486"/>
<polygon fill="#ff0000" stroke="#ff0000" points="377.8254,-61.141 383.4262,-52.1476 373.4394,-55.6854 377.8254,-61.141"/>
<text text-anchor="start" x="361" y="-72" font-family="Helvetica,sans-Serif" font-size="10.00" fill="#ff0000">uart_data_ready = &#39;1&#39; &#160;&#160;</text>
</g>
<!-- GET_bus -->
<g id="node3" class="node state regular">
<title>GET_bus</title>
<polygon fill="#ffffff" fill-opacity="0.003922" stroke="transparent" stroke-width="2" points="452,-556 380,-556 380,-520 452,-520 452,-556"/>
<text text-anchor="start" x="390.6596" y="-534.2" font-family="Helvetica,sans-Serif" font-size="12.00" fill="#000000">GET_bus</text>
<path fill="none" stroke="#000000" stroke-width="2" d="M392.3333,-521C392.3333,-521 439.6667,-521 439.6667,-521 445.3333,-521 451,-526.6667 451,-532.3333 451,-532.3333 451,-543.6667 451,-543.6667 451,-549.3333 445.3333,-555 439.6667,-555 439.6667,-555 392.3333,-555 392.3333,-555 386.6667,-555 381,-549.3333 381,-543.6667 381,-543.6667 381,-532.3333 381,-532.3333 381,-526.6667 386.6667,-521 392.3333,-521"/>
</g>
<!-- PREP_TRANSMIT -->
<g id="node4" class="node state regular">
<title>PREP_TRANSMIT</title>
<polygon fill="#ffffff" fill-opacity="0.003922" stroke="transparent" stroke-width="2" points="399,-474 277,-474 277,-438 399,-438 399,-474"/>
<text text-anchor="start" x="287.6678" y="-452.2" font-family="Helvetica,sans-Serif" font-size="12.00" fill="#000000">PREP_TRANSMIT</text>
<path fill="none" stroke="#000000" stroke-width="2" d="M289.3333,-439C289.3333,-439 386.6667,-439 386.6667,-439 392.3333,-439 398,-444.6667 398,-450.3333 398,-450.3333 398,-461.6667 398,-461.6667 398,-467.3333 392.3333,-473 386.6667,-473 386.6667,-473 289.3333,-473 289.3333,-473 283.6667,-473 278,-467.3333 278,-461.6667 278,-461.6667 278,-450.3333 278,-450.3333 278,-444.6667 283.6667,-439 289.3333,-439"/>
</g>
<!-- GET_bus&#45;&gt;PREP_TRANSMIT -->
<g id="edge3" class="edge transition">
<title>GET_bus&#45;&gt;PREP_TRANSMIT</title>
<path fill="none" stroke="#000000" d="M398.6893,-519.8015C387.985,-508.5483 374.0844,-493.9348 362.288,-481.5335"/>
<polygon fill="#000000" stroke="#000000" points="364.6905,-478.9809 355.2623,-474.1476 359.6185,-483.8055 364.6905,-478.9809"/>
<text text-anchor="start" x="382" y="-494" font-family="Helvetica,sans-Serif" font-size="10.00" fill="#000000">uart_grant = &#39;1&#39; &#160;&#160;</text>
</g>
<!-- GET_bus&#45;&gt;GET_BUS -->
<g id="edge4" class="edge transition">
<title>GET_bus&#45;&gt;GET_BUS</title>
<path fill="none" stroke="#ff0000" d="M452.0968,-528.9438C477.8711,-521.3846 508,-509.8089 508,-497 508,-497 508,-497 508,-75 508,-62.4767 481.195,-52.0186 455.0674,-44.7994"/>
<polygon fill="#ff0000" stroke="#ff0000" points="455.7052,-41.3483 445.1441,-42.1935 453.9273,-48.1187 455.7052,-41.3483"/>
<text text-anchor="start" x="508" y="-289" font-family="Helvetica,sans-Serif" font-size="10.00" fill="#ff0000">not (uart_grant = &#39;1&#39;) &#160;&#160;</text>
</g>
<!-- TRANSMIT -->
<g id="node5" class="node state regular">
<title>TRANSMIT</title>
<polygon fill="#ffffff" fill-opacity="0.003922" stroke="transparent" stroke-width="2" points="335.5,-392 252.5,-392 252.5,-356 335.5,-356 335.5,-392"/>
<text text-anchor="start" x="263.8388" y="-370.2" font-family="Helvetica,sans-Serif" font-size="12.00" fill="#000000">TRANSMIT</text>
<path fill="none" stroke="#000000" stroke-width="2" d="M264.8333,-357C264.8333,-357 323.1667,-357 323.1667,-357 328.8333,-357 334.5,-362.6667 334.5,-368.3333 334.5,-368.3333 334.5,-379.6667 334.5,-379.6667 334.5,-385.3333 328.8333,-391 323.1667,-391 323.1667,-391 264.8333,-391 264.8333,-391 259.1667,-391 253.5,-385.3333 253.5,-379.6667 253.5,-379.6667 253.5,-368.3333 253.5,-368.3333 253.5,-362.6667 259.1667,-357 264.8333,-357"/>
</g>
<!-- PREP_TRANSMIT&#45;&gt;TRANSMIT -->
<g id="edge5" class="edge transition">
<title>PREP_TRANSMIT&#45;&gt;TRANSMIT</title>
<path fill="none" stroke="#000000" d="M328.235,-437.8015C322.4815,-427.0791 315.091,-413.306 308.6502,-401.3026"/>
<polygon fill="#000000" stroke="#000000" points="311.55,-399.3043 303.7377,-392.1476 305.3819,-402.6141 311.55,-399.3043"/>
<text text-anchor="middle" x="319.3895" y="-412" font-family="Helvetica,sans-Serif" font-size="10.00" fill="#000000"> </text>
</g>
<!-- START_TRANSMIT -->
<g id="node6" class="node state regular">
<title>START_TRANSMIT</title>
<polygon fill="#ffffff" fill-opacity="0.003922" stroke="transparent" stroke-width="2" points="145.5,-310 16.5,-310 16.5,-274 145.5,-274 145.5,-310"/>
<text text-anchor="start" x="27.8384" y="-288.2" font-family="Helvetica,sans-Serif" font-size="12.00" fill="#000000">START_TRANSMIT</text>
<path fill="none" stroke="#000000" stroke-width="2" d="M28.8333,-275C28.8333,-275 133.1667,-275 133.1667,-275 138.8333,-275 144.5,-280.6667 144.5,-286.3333 144.5,-286.3333 144.5,-297.6667 144.5,-297.6667 144.5,-303.3333 138.8333,-309 133.1667,-309 133.1667,-309 28.8333,-309 28.8333,-309 23.1667,-309 17.5,-303.3333 17.5,-297.6667 17.5,-297.6667 17.5,-286.3333 17.5,-286.3333 17.5,-280.6667 23.1667,-275 28.8333,-275"/>
</g>
<!-- TRANSMIT&#45;&gt;START_TRANSMIT -->
<g id="edge6" class="edge transition">
<title>TRANSMIT&#45;&gt;START_TRANSMIT</title>
<path fill="none" stroke="#000000" d="M252.4258,-357.9949C219.6405,-345.3733 173.5807,-327.6414 137.4599,-313.7357"/>
<polygon fill="#000000" stroke="#000000" points="138.621,-310.4324 128.0312,-310.1059 136.106,-316.965 138.621,-310.4324"/>
<text text-anchor="middle" x="202.3895" y="-330" font-family="Helvetica,sans-Serif" font-size="10.00" fill="#000000"> </text>
</g>
<!-- START_TRANSMIT&#45;&gt;START_TRANSMIT -->
<g id="edge7" class="edge transition">
<title>START_TRANSMIT&#45;&gt;START_TRANSMIT</title>
<path fill="none" stroke="#000000" d="M145.5072,-296.6739C158.3453,-296.1478 167.5,-294.5898 167.5,-292 167.5,-290.179 162.974,-288.8682 155.8241,-288.0675"/>
<polygon fill="#000000" stroke="#000000" points="155.7324,-284.552 145.5072,-287.3261 155.2306,-291.534 155.7324,-284.552"/>
<text text-anchor="start" x="167.5" y="-289" font-family="Helvetica,sans-Serif" font-size="10.00" fill="#000000">uart_tx_busy = &#39;0&#39; &#160;&#160;</text>
</g>
<!-- wait_TRANSMIT -->
<g id="node7" class="node state regular">
<title>wait_TRANSMIT</title>
<polygon fill="#ffffff" fill-opacity="0.003922" stroke="transparent" stroke-width="2" points="349.5,-228 238.5,-228 238.5,-192 349.5,-192 349.5,-228"/>
<text text-anchor="start" x="249.8378" y="-206.2" font-family="Helvetica,sans-Serif" font-size="12.00" fill="#000000">wait_TRANSMIT</text>
<path fill="none" stroke="#000000" stroke-width="2" d="M250.8333,-193C250.8333,-193 337.1667,-193 337.1667,-193 342.8333,-193 348.5,-198.6667 348.5,-204.3333 348.5,-204.3333 348.5,-215.6667 348.5,-215.6667 348.5,-221.3333 342.8333,-227 337.1667,-227 337.1667,-227 250.8333,-227 250.8333,-227 245.1667,-227 239.5,-221.3333 239.5,-215.6667 239.5,-215.6667 239.5,-204.3333 239.5,-204.3333 239.5,-198.6667 245.1667,-193 250.8333,-193"/>
</g>
<!-- START_TRANSMIT&#45;&gt;wait_TRANSMIT -->
<g id="edge8" class="edge transition">
<title>START_TRANSMIT&#45;&gt;wait_TRANSMIT</title>
<path fill="none" stroke="#000000" d="M114.8699,-273.8882C133.1636,-264.5302 156.3255,-253.3539 177.714,-245 193.9663,-238.6522 211.8632,-232.7509 228.643,-227.6707"/>
<polygon fill="#000000" stroke="#000000" points="229.7853,-230.9826 238.3728,-224.7773 227.7899,-224.273 229.7853,-230.9826"/>
<text text-anchor="start" x="177" y="-248" font-family="Helvetica,sans-Serif" font-size="10.00" fill="#000000">not (uart_tx_busy = &#39;0&#39;) &#160;&#160;</text>
</g>
<!-- wait_TRANSMIT&#45;&gt;IDLE -->
<g id="edge10" class="edge transition">
<title>wait_TRANSMIT&#45;&gt;IDLE</title>
<path fill="none" stroke="#000000" d="M295.9281,-191.8759C297.3669,-178.3516 299.3597,-159.6192 301.0052,-144.1514"/>
<polygon fill="#000000" stroke="#000000" points="304.5002,-144.3827 302.0778,-134.0685 297.5395,-143.6421 304.5002,-144.3827"/>
<text text-anchor="start" x="300" y="-166" font-family="Helvetica,sans-Serif" font-size="10.00" fill="#000000">(&quot;000&quot; &amp; transmit_addr) = x&quot;13&quot; &#160;&#160;</text>
<text text-anchor="start" x="300" y="-154" font-family="Helvetica,sans-Serif" font-size="10.00" fill="#000000">not (uart_tx_busy = &#39;1&#39;) &#160;&#160;</text>
</g>
<!-- wait_TRANSMIT&#45;&gt;TRANSMIT -->
<g id="edge11" class="edge transition">
<title>wait_TRANSMIT&#45;&gt;TRANSMIT</title>
<path fill="none" stroke="#000000" d="M294,-228.3688C294,-235.4426 294,-243.5972 294,-251 294,-333 294,-333 294,-333 294,-337.0484 294,-341.3216 294,-345.52"/>
<polygon fill="#000000" stroke="#000000" points="290.5001,-345.6312 294,-355.6312 297.5001,-345.6313 290.5001,-345.6312"/>
<text text-anchor="start" x="294" y="-295" font-family="Helvetica,sans-Serif" font-size="10.00" fill="#000000">not (uart_tx_busy = &#39;1&#39;) &#160;&#160;</text>
<text text-anchor="start" x="294" y="-283" font-family="Helvetica,sans-Serif" font-size="10.00" fill="#000000">not ((&quot;000&quot; &amp; transmit_addr) = x&quot;13&quot;) &#160;&#160;</text>
</g>
<!-- wait_TRANSMIT&#45;&gt;wait_TRANSMIT -->
<g id="edge9" class="edge transition">
<title>wait_TRANSMIT&#45;&gt;wait_TRANSMIT</title>
<path fill="none" stroke="#000000" d="M349.7324,-214.756C362.3044,-214.3275 371.5,-212.7422 371.5,-210 371.5,-208.0719 366.9539,-206.7157 359.8844,-205.9315"/>
<polygon fill="#000000" stroke="#000000" points="359.946,-202.4278 349.7324,-205.244 359.473,-209.4118 359.946,-202.4278"/>
<text text-anchor="start" x="371.5" y="-207" font-family="Helvetica,sans-Serif" font-size="10.00" fill="#000000">uart_tx_busy = &#39;1&#39; &#160;&#160;</text>
</g>
</g>
</svg>
